<mxfile host="app.diagrams.net" modified="2021-07-28T07:39:18.737Z" agent="5.0 (Windows NT 10.0; Win64; x64) AppleWebKit/537.36 (KHTML, like Gecko) Chrome/72.0.3626.119 Safari/537.36" etag="r9QL-CB8xxqCmYEDiebw" version="14.9.2" type="github">
  <diagram id="s7PlrWIH2ke5MFDkeITM" name="第 1 页">
    <mxGraphModel dx="1422" dy="762" grid="1" gridSize="10" guides="1" tooltips="1" connect="1" arrows="1" fold="1" page="1" pageScale="1" pageWidth="827" pageHeight="1169" math="0" shadow="0">
      <root>
        <mxCell id="0" />
        <mxCell id="1" parent="0" />
        <mxCell id="s3Gmdj12thfL3iEvKWnO-8" style="edgeStyle=orthogonalEdgeStyle;rounded=0;orthogonalLoop=1;jettySize=auto;html=1;" edge="1" parent="1" source="s3Gmdj12thfL3iEvKWnO-4" target="s3Gmdj12thfL3iEvKWnO-6">
          <mxGeometry relative="1" as="geometry" />
        </mxCell>
        <mxCell id="s3Gmdj12thfL3iEvKWnO-4" value="问卷查询" style="rounded=1;whiteSpace=wrap;html=1;" vertex="1" parent="1">
          <mxGeometry x="150" y="220" width="100" height="50" as="geometry" />
        </mxCell>
        <mxCell id="s3Gmdj12thfL3iEvKWnO-9" style="edgeStyle=orthogonalEdgeStyle;rounded=0;orthogonalLoop=1;jettySize=auto;html=1;" edge="1" parent="1" source="s3Gmdj12thfL3iEvKWnO-6" target="s3Gmdj12thfL3iEvKWnO-7">
          <mxGeometry relative="1" as="geometry">
            <Array as="points">
              <mxPoint x="340" y="340" />
              <mxPoint x="340" y="340" />
            </Array>
          </mxGeometry>
        </mxCell>
        <mxCell id="s3Gmdj12thfL3iEvKWnO-11" value="查询问题卷列表" style="edgeLabel;html=1;align=center;verticalAlign=middle;resizable=0;points=[];" vertex="1" connectable="0" parent="s3Gmdj12thfL3iEvKWnO-9">
          <mxGeometry x="-0.1692" y="1" relative="1" as="geometry">
            <mxPoint as="offset" />
          </mxGeometry>
        </mxCell>
        <mxCell id="s3Gmdj12thfL3iEvKWnO-6" value="蕴业" style="rounded=1;whiteSpace=wrap;html=1;" vertex="1" parent="1">
          <mxGeometry x="150" y="330" width="100" height="50" as="geometry" />
        </mxCell>
        <mxCell id="s3Gmdj12thfL3iEvKWnO-10" style="edgeStyle=orthogonalEdgeStyle;rounded=0;orthogonalLoop=1;jettySize=auto;html=1;entryX=1;entryY=0.75;entryDx=0;entryDy=0;" edge="1" parent="1" source="s3Gmdj12thfL3iEvKWnO-7" target="s3Gmdj12thfL3iEvKWnO-6">
          <mxGeometry relative="1" as="geometry">
            <Array as="points">
              <mxPoint x="315" y="368" />
            </Array>
          </mxGeometry>
        </mxCell>
        <mxCell id="s3Gmdj12thfL3iEvKWnO-12" value="返回问卷列表" style="edgeLabel;html=1;align=center;verticalAlign=middle;resizable=0;points=[];" vertex="1" connectable="0" parent="s3Gmdj12thfL3iEvKWnO-10">
          <mxGeometry x="-0.1538" y="-2" relative="1" as="geometry">
            <mxPoint as="offset" />
          </mxGeometry>
        </mxCell>
        <mxCell id="s3Gmdj12thfL3iEvKWnO-7" value="CRM" style="rounded=1;whiteSpace=wrap;html=1;" vertex="1" parent="1">
          <mxGeometry x="380" y="330" width="100" height="50" as="geometry" />
        </mxCell>
        <mxCell id="s3Gmdj12thfL3iEvKWnO-17" style="edgeStyle=orthogonalEdgeStyle;rounded=0;orthogonalLoop=1;jettySize=auto;html=1;" edge="1" parent="1" source="s3Gmdj12thfL3iEvKWnO-14" target="s3Gmdj12thfL3iEvKWnO-15">
          <mxGeometry relative="1" as="geometry" />
        </mxCell>
        <mxCell id="s3Gmdj12thfL3iEvKWnO-14" value="提交问卷结果" style="rounded=1;whiteSpace=wrap;html=1;" vertex="1" parent="1">
          <mxGeometry x="150" y="430" width="100" height="50" as="geometry" />
        </mxCell>
        <mxCell id="s3Gmdj12thfL3iEvKWnO-18" style="edgeStyle=orthogonalEdgeStyle;rounded=0;orthogonalLoop=1;jettySize=auto;html=1;" edge="1" parent="1" source="s3Gmdj12thfL3iEvKWnO-15" target="s3Gmdj12thfL3iEvKWnO-16">
          <mxGeometry relative="1" as="geometry" />
        </mxCell>
        <mxCell id="s3Gmdj12thfL3iEvKWnO-21" value="写入CRM" style="edgeLabel;html=1;align=center;verticalAlign=middle;resizable=0;points=[];" vertex="1" connectable="0" parent="s3Gmdj12thfL3iEvKWnO-18">
          <mxGeometry x="0.4673" y="-2" relative="1" as="geometry">
            <mxPoint y="-7" as="offset" />
          </mxGeometry>
        </mxCell>
        <mxCell id="s3Gmdj12thfL3iEvKWnO-20" style="edgeStyle=orthogonalEdgeStyle;rounded=0;orthogonalLoop=1;jettySize=auto;html=1;entryX=0;entryY=0.5;entryDx=0;entryDy=0;" edge="1" parent="1" source="s3Gmdj12thfL3iEvKWnO-15" target="s3Gmdj12thfL3iEvKWnO-19">
          <mxGeometry relative="1" as="geometry" />
        </mxCell>
        <mxCell id="s3Gmdj12thfL3iEvKWnO-22" value="通知恒生同步客户问卷结果&lt;br&gt;" style="edgeLabel;html=1;align=center;verticalAlign=middle;resizable=0;points=[];" vertex="1" connectable="0" parent="s3Gmdj12thfL3iEvKWnO-20">
          <mxGeometry x="0.4206" y="-1" relative="1" as="geometry">
            <mxPoint x="-22" y="14" as="offset" />
          </mxGeometry>
        </mxCell>
        <mxCell id="s3Gmdj12thfL3iEvKWnO-15" value="蕴业" style="rounded=1;whiteSpace=wrap;html=1;" vertex="1" parent="1">
          <mxGeometry x="150" y="530" width="100" height="50" as="geometry" />
        </mxCell>
        <mxCell id="s3Gmdj12thfL3iEvKWnO-16" value="CRM" style="rounded=1;whiteSpace=wrap;html=1;" vertex="1" parent="1">
          <mxGeometry x="414" y="480" width="100" height="50" as="geometry" />
        </mxCell>
        <mxCell id="s3Gmdj12thfL3iEvKWnO-19" value="恒生" style="rounded=1;whiteSpace=wrap;html=1;" vertex="1" parent="1">
          <mxGeometry x="414" y="580" width="100" height="50" as="geometry" />
        </mxCell>
        <mxCell id="s3Gmdj12thfL3iEvKWnO-23" style="edgeStyle=orthogonalEdgeStyle;rounded=0;orthogonalLoop=1;jettySize=auto;html=1;" edge="1" parent="1" source="s3Gmdj12thfL3iEvKWnO-24" target="s3Gmdj12thfL3iEvKWnO-29">
          <mxGeometry relative="1" as="geometry" />
        </mxCell>
        <mxCell id="s3Gmdj12thfL3iEvKWnO-24" value="基金产品与客户评级匹配情况" style="rounded=1;whiteSpace=wrap;html=1;" vertex="1" parent="1">
          <mxGeometry x="150" y="670" width="100" height="50" as="geometry" />
        </mxCell>
        <mxCell id="s3Gmdj12thfL3iEvKWnO-32" style="edgeStyle=orthogonalEdgeStyle;rounded=0;orthogonalLoop=1;jettySize=auto;html=1;" edge="1" parent="1" source="s3Gmdj12thfL3iEvKWnO-29" target="s3Gmdj12thfL3iEvKWnO-31">
          <mxGeometry relative="1" as="geometry">
            <Array as="points">
              <mxPoint x="320" y="780" />
              <mxPoint x="320" y="780" />
            </Array>
          </mxGeometry>
        </mxCell>
        <mxCell id="s3Gmdj12thfL3iEvKWnO-34" value="读取结果" style="edgeLabel;html=1;align=center;verticalAlign=middle;resizable=0;points=[];" vertex="1" connectable="0" parent="s3Gmdj12thfL3iEvKWnO-32">
          <mxGeometry x="0.2308" y="-5" relative="1" as="geometry">
            <mxPoint x="-10" y="-15" as="offset" />
          </mxGeometry>
        </mxCell>
        <mxCell id="s3Gmdj12thfL3iEvKWnO-29" value="蕴业" style="rounded=1;whiteSpace=wrap;html=1;" vertex="1" parent="1">
          <mxGeometry x="150" y="770" width="100" height="50" as="geometry" />
        </mxCell>
        <mxCell id="s3Gmdj12thfL3iEvKWnO-33" style="edgeStyle=orthogonalEdgeStyle;rounded=0;orthogonalLoop=1;jettySize=auto;html=1;entryX=1;entryY=0.75;entryDx=0;entryDy=0;" edge="1" parent="1" source="s3Gmdj12thfL3iEvKWnO-31" target="s3Gmdj12thfL3iEvKWnO-29">
          <mxGeometry relative="1" as="geometry">
            <Array as="points">
              <mxPoint x="315" y="808" />
            </Array>
          </mxGeometry>
        </mxCell>
        <mxCell id="s3Gmdj12thfL3iEvKWnO-35" value="返回结果" style="edgeLabel;html=1;align=center;verticalAlign=middle;resizable=0;points=[];" vertex="1" connectable="0" parent="s3Gmdj12thfL3iEvKWnO-33">
          <mxGeometry x="-0.2" y="1" relative="1" as="geometry">
            <mxPoint x="-8" as="offset" />
          </mxGeometry>
        </mxCell>
        <mxCell id="s3Gmdj12thfL3iEvKWnO-31" value="恒生" style="rounded=1;whiteSpace=wrap;html=1;" vertex="1" parent="1">
          <mxGeometry x="380" y="770" width="100" height="50" as="geometry" />
        </mxCell>
      </root>
    </mxGraphModel>
  </diagram>
</mxfile>
